# xmcd
#
# Track frame offsets: 
#        182
#        11052
#        23597
#        35245
#        45365
#        56467
#        68070
#        78420
#        91282
#        100842
#        111760
#        124262
#        137625
#        151172
#        162182
#        174222
#        186402
#        195192
#        207240
#        219042
#        232650
#        243800
#        257397
#        269095
#        282615
#        296300
#        308645
#        320077
#
# Disc length: 4423 seconds
#
# Revision: 17
# Processed by: cddbd v1.5.2PL0 Copyright (c) Steve Scherf et al.
# Submitted via: ExactAudioCopyFreeDBPlugin 1.0
#
DISCID=7511451c
DTITLE=Various Artist - The Complete Stax-Volt Singles, 1959-1975
DYEAR=1991
DGENRE=Soul
TTITLE0=Otis Redding - Pain in My Heart
TTITLE1=Carla Thomas - Gee Whiz It's Christmas
TTITLE2=Booker T. and The M.G.'s - Mo' Onions
TTITLE3=Floyd Newman - Frog Stomp
TTITLE4=Rufus Thomas - Can Your Monkey Do the Dog
TTITLE5=Bobby Marchan - You Won't Do Right
TTITLE6=The Drapels - Wondering (When My Love is Coming Home)
TTITLE7=Deanie Parker - Each Step I Take
TTITLE8=The Van-Dells - The Honey Dripper
TTITLE9=William Bell - Who Will it Be Tomorrow
TTITLE10=Otis Redding - Come to Me
TTITLE11=Otis Redding - Don't Leave Me This Way
TTITLE12=Eddie Jefferson - I Don't Want You Anymore
TTITLE13=The Cobras - Restless
TTITLE14=Rufus Thomas - Somebody Stole My Dog
TTITLE15=Barbara and The Browns - Big Party
TTITLE16=Rufus Thomas and Carla Thomas - That's Really Some Good
TTITLE17=Rufus Thomas and Carla Thomas - Night Time is the Right Time
TTITLE18=Otis Redding - Security
TTITLE19=Oscar Mack - Dream Girl
TTITLE20=Dorothy Williams - Closer to My Baby
TTITLE21=Carla Thomas - I've Got No Time to Lose
TTITLE22=The Drapels - Young Man
TTITLE23=Booker T. and The M.G.'s - Soul Dressing
TTITLE24=Wendy Rene - After Laughter (Comes Tears)
TTITLE25=Ivory Joe Hunter - Can't Explain How it Happened
TTITLE26=The Mar-Keys - Bush Bash
TTITLE27=The Fleets - Please Return to Me
EXTD=
EXTT0=
EXTT1=
EXTT2=
EXTT3=
EXTT4=
EXTT5=
EXTT6=
EXTT7=
EXTT8=
EXTT9=
EXTT10=
EXTT11=
EXTT12=
EXTT13=
EXTT14=
EXTT15=
EXTT16=
EXTT17=
EXTT18=
EXTT19=
EXTT20=
EXTT21=
EXTT22=
EXTT23=
EXTT24=
EXTT25=
EXTT26=
EXTT27=
PLAYORDER=
